<svg id="Capa_1" enable-background="new 0 0 511.783 511.783" height="512" viewBox="0 0 511.783 511.783" width="512" xmlns="http://www.w3.org/2000/svg"><g><g><path d="m286.918 205.297-99.551 14.187-83.955-202.006c-1.934-4.653 1.491-9.776 6.53-9.767l91.854.156c2.866.005 5.444 1.742 6.525 4.396z" fill="#df646e"/><path d="m224.864 205.084 99.551 14.187 83.955-202.006c1.934-4.653-1.491-9.776-6.53-9.767l-91.854.156c-2.866.005-5.444 1.742-6.525 4.396z" fill="#df646e"/><circle cx="256.325" cy="378.64" fill="#ffe07d" r="125.645"/><circle cx="256.325" cy="378.64" fill="#fff0af" r="70.631"/><path d="m408.371 17.262-83.96 202.01-28.32-4.04 82.28-197.97c1.82-4.4-1.13-9.21-5.72-9.71l29.19-.05c5.04-.01 8.46 5.11 6.53 9.76z" fill="#dc4955"/><path d="m286.921 205.302-28.37 4.04-81.11-199.24c-.35-.85-.83-1.62-1.43-2.27l25.78.04c2.87 0 5.45 1.74 6.53 4.39z" fill="#dc4955"/><path d="m318.539 252.996h-124.428c-21.698 0-39.287-17.589-39.287-39.287v-15.832c0-3.302 2.677-5.979 5.979-5.979h191.045c3.302 0 5.979 2.677 5.979 5.979v15.832c-.001 21.697-17.59 39.287-39.288 39.287z" fill="#ffe07d"/><g fill="#ffd064"><path d="m381.971 378.642c0 69.39-56.25 125.64-125.65 125.64-5.08 0-10.08-.3-15-.89 62.33-7.41 110.65-60.44 110.65-124.75s-48.32-117.35-110.65-124.76c4.92-.59 9.92-.89 15-.89 69.4 0 125.65 56.26 125.65 125.65z"/><path d="m357.821 197.872v15.84c0 21.69-17.58 39.28-39.28 39.28h-30c21.7 0 39.28-17.59 39.28-39.28v-15.84c0-3.3-2.67-5.97-5.97-5.97h30c3.3 0 5.97 2.67 5.97 5.97z"/></g></g><g><path d="m178.194 378.639c0 43.081 35.05 78.13 78.131 78.13s78.131-35.049 78.131-78.13-35.05-78.13-78.131-78.13-78.131 35.049-78.131 78.13zm141.262 0c0 34.81-28.32 63.13-63.131 63.13s-63.131-28.32-63.131-63.13 28.32-63.13 63.131-63.13 63.131 28.32 63.131 63.13z"/><path d="m413.952 6.459c-2.707-4.046-7.228-6.459-12.093-6.459-.01 0-.02 0-.03 0l-91.863.15c-5.941.021-11.222 3.584-13.45 9.072l-40.666 99.883-40.584-99.676c-2.243-5.503-7.532-9.059-13.462-9.059l-91.848-.16c-.011 0-.021 0-.03 0-4.865 0-9.384 2.411-12.092 6.454-2.716 4.056-3.222 9.172-1.35 13.695l68.187 164.041h-3.869c-7.434 0-13.48 6.042-13.48 13.47v15.84c0 25.794 20.99 46.78 46.79 46.78h.88c-42.632 22.221-71.81 66.839-71.81 118.149 0 73.416 59.729 133.145 133.145 133.145s133.145-59.729 133.145-133.145c0-51.31-29.178-95.928-71.81-118.149h.883c25.794 0 46.779-20.985 46.779-46.78v-15.84c0-7.427-6.043-13.47-13.47-13.47h-4.82l43.656-105.042c1.59-3.825-.223-8.214-4.048-9.804-3.823-1.591-8.215.222-9.804 4.047l-46.052 110.799h-44.281l-22.559-55.406 46.35-113.845 90.891-.148-10.923 26.28c-1.59 3.825.223 8.214 4.047 9.804 3.827 1.59 8.214-.223 9.805-4.047l11.182-26.904c1.871-4.507 1.367-9.619-1.346-13.675zm-39.483 372.18c0 65.145-52.999 118.145-118.145 118.145s-118.145-53-118.145-118.145 52.999-118.145 118.145-118.145 118.145 53 118.145 118.145zm-146.078-179.239h121.93v14.31c0 17.523-14.256 31.78-31.779 31.78h-124.431c-17.529 0-31.79-14.256-31.79-31.78v-14.31h31.07c4.143 0 7.5-3.358 7.5-7.5s-3.357-7.5-7.5-7.5h-12.476l-70.326-169.189 90.899.158 68.822 169.031h-41.919c-4.143 0-7.5 3.358-7.5 7.5s3.358 7.5 7.5 7.5z"/></g></g></svg>